REM DIRINDEX 1\2,1\3,1\4,1\5
REM DIRNAME "folder01","folder02","folder03","folder04","folder05"
TITLE ""
FILE "1Q_j_2342-2355.mp3" MP3
  TRACK 01 AUDIO
    TITLE "3:cjc172_0728"
    INDEX 01 00:00:00
  TRACK 02 AUDIO
    TITLE "0:"
    INDEX 01 00:01:39
  TRACK 03 AUDIO
    TITLE "4:cjc172_0729"
    INDEX 01 00:01:47
  TRACK 04 AUDIO
    TITLE "0:"
    INDEX 01 00:02:72
  TRACK 05 AUDIO
    TITLE "5:cjc172_0730"
    INDEX 01 00:03:05
  TRACK 06 AUDIO
    TITLE "0:"
    INDEX 01 00:07:67
  TRACK 07 AUDIO
    TITLE "3:cjc172_0731"
    INDEX 01 00:08:39
  TRACK 08 AUDIO
    TITLE "0:"
    INDEX 01 00:09:46
  TRACK 09 AUDIO
    TITLE "4:cjc172_0732"
    INDEX 01 00:09:64
  TRACK 10 AUDIO
    TITLE "0:"
    INDEX 01 00:11:45
  TRACK 11 AUDIO
    TITLE "5:cjc172_0733"
    INDEX 01 00:11:53
  TRACK 12 AUDIO
    TITLE "0:"
    INDEX 01 00:16:23
  TRACK 13 AUDIO
    TITLE "3:cjc172_0734"
    INDEX 01 00:16:70
  TRACK 14 AUDIO
    TITLE "0:"
    INDEX 01 00:18:28
  TRACK 15 AUDIO
    TITLE "4:cjc172_0735"
    INDEX 01 00:18:38
  TRACK 16 AUDIO
    TITLE "0:"
    INDEX 01 00:20:23
  TRACK 17 AUDIO
    TITLE "5:cjc172_0736"
    INDEX 01 00:20:29
  TRACK 18 AUDIO
    TITLE "0:"
    INDEX 01 00:26:35
  TRACK 19 AUDIO
    TITLE "3:cjc172_0737"
    INDEX 01 00:27:07
  TRACK 20 AUDIO
    TITLE "0:"
    INDEX 01 00:28:16
  TRACK 21 AUDIO
    TITLE "4:cjc172_0738"
    INDEX 01 00:28:34
  TRACK 22 AUDIO
    TITLE "0:"
    INDEX 01 00:30:70
  TRACK 23 AUDIO
    TITLE "5:cjc172_0739"
    INDEX 01 00:31:01
  TRACK 24 AUDIO
    TITLE "0:"
    INDEX 01 00:38:05
  TRACK 25 AUDIO
    TITLE "3:cjc172_0740"
    INDEX 01 00:38:52
  TRACK 26 AUDIO
    TITLE "0:"
    INDEX 01 00:39:73
  TRACK 27 AUDIO
    TITLE "4:cjc172_0741"
    INDEX 01 00:40:08
  TRACK 28 AUDIO
    TITLE "0:"
    INDEX 01 00:42:19
  TRACK 29 AUDIO
    TITLE "5:cjc172_0742"
    INDEX 01 00:42:26
  TRACK 30 AUDIO
    TITLE "0:"
    INDEX 01 00:48:23
  TRACK 31 AUDIO
    TITLE "3:cjc172_0743"
    INDEX 01 00:48:68
  TRACK 32 AUDIO
    TITLE "0:"
    INDEX 01 00:50:67
  TRACK 33 AUDIO
    TITLE "4:cjc172_0744"
    INDEX 01 00:50:75
  TRACK 34 AUDIO
    TITLE "0:"
    INDEX 01 00:53:09
  TRACK 35 AUDIO
    TITLE "5:cjc172_0745"
    INDEX 01 00:53:16
  TRACK 36 AUDIO
    TITLE "0:"
    INDEX 01 00:58:41
  TRACK 37 AUDIO
    TITLE "3:cjc172_0746"
    INDEX 01 00:59:11
  TRACK 38 AUDIO
    TITLE "0:"
    INDEX 01 01:00:42
  TRACK 39 AUDIO
    TITLE "4:cjc172_0747"
    INDEX 01 01:00:50
  TRACK 40 AUDIO
    TITLE "0:"
    INDEX 01 01:03:70
  TRACK 41 AUDIO
    TITLE "5:cjc172_0748"
    INDEX 01 01:04:01
  TRACK 42 AUDIO
    TITLE "0:"
    INDEX 01 01:09:57
  TRACK 43 AUDIO
    TITLE "3:cjc172_0749"
    INDEX 01 01:10:27
  TRACK 44 AUDIO
    TITLE "0:"
    INDEX 01 01:11:52
  TRACK 45 AUDIO
    TITLE "4:cjc172_0750"
    INDEX 01 01:11:61
  TRACK 46 AUDIO
    TITLE "0:"
    INDEX 01 01:15:04
  TRACK 47 AUDIO
    TITLE "5:cjc172_0751"
    INDEX 01 01:15:12
  TRACK 48 AUDIO
    TITLE "0:"
    INDEX 01 01:19:37
  TRACK 49 AUDIO
    TITLE "3:cjc172_0752"
    INDEX 01 01:20:07
  TRACK 50 AUDIO
    TITLE "0:"
    INDEX 01 01:21:17
  TRACK 51 AUDIO
    TITLE "4:cjc172_0753"
    INDEX 01 01:21:38
  TRACK 52 AUDIO
    TITLE "0:"
    INDEX 01 01:25:40
  TRACK 53 AUDIO
    TITLE "5:cjc172_0754"
    INDEX 01 01:25:46
  TRACK 54 AUDIO
    TITLE "0:"
    INDEX 01 01:30:74
  TRACK 55 AUDIO
    TITLE "3:cjc172_0755"
    INDEX 01 01:31:44
  TRACK 56 AUDIO
    TITLE "0:"
    INDEX 01 01:33:10
  TRACK 57 AUDIO
    TITLE "4:cjc172_0756"
    INDEX 01 01:33:16
  TRACK 58 AUDIO
    TITLE "0:"
    INDEX 01 01:35:52
  TRACK 59 AUDIO
    TITLE "5:cjc172_0757"
    INDEX 01 01:35:60
  TRACK 60 AUDIO
    TITLE "0:"
    INDEX 01 01:42:42
  TRACK 61 AUDIO
    TITLE "3:cjc172_0758"
    INDEX 01 01:43:14
  TRACK 62 AUDIO
    TITLE "0:"
    INDEX 01 01:44:45
  TRACK 63 AUDIO
    TITLE "4:cjc172_0759"
    INDEX 01 01:44:55
  TRACK 64 AUDIO
    TITLE "0:"
    INDEX 01 01:46:15
  TRACK 65 AUDIO
    TITLE "5:cjc172_0760"
    INDEX 01 01:46:22
  TRACK 66 AUDIO
    TITLE "0:"
    INDEX 01 01:51:51
  TRACK 67 AUDIO
    TITLE "3:cjc172_0761"
    INDEX 01 01:52:23
  TRACK 68 AUDIO
    TITLE "0:"
    INDEX 01 01:53:46
  TRACK 69 AUDIO
    TITLE "4:cjc172_0762"
    INDEX 01 01:53:54
  TRACK 70 AUDIO
    TITLE "0:"
    INDEX 01 01:56:54
  TRACK 71 AUDIO
    TITLE "5:cjc172_0763"
    INDEX 01 01:56:62
  TRACK 72 AUDIO
    TITLE "0:"
    INDEX 01 02:01:32
  TRACK 73 AUDIO
    TITLE "3:cjc172_0764"
    INDEX 01 02:02:04
  TRACK 74 AUDIO
    TITLE "0:"
    INDEX 01 02:03:37
  TRACK 75 AUDIO
    TITLE "4:cjc172_0765"
    INDEX 01 02:03:46
  TRACK 76 AUDIO
    TITLE "0:"
    INDEX 01 02:04:71
  TRACK 77 AUDIO
    TITLE "5:cjc172_0766"
    INDEX 01 02:05:04
  TRACK 78 AUDIO
    TITLE "0:"
    INDEX 01 02:11:65
  TRACK 79 AUDIO
    TITLE "3:cjc172_0767"
    INDEX 01 02:12:36
  TRACK 80 AUDIO
    TITLE "0:"
    INDEX 01 02:13:64
  TRACK 81 AUDIO
    TITLE "4:cjc172_0768"
    INDEX 01 02:13:72
  TRACK 82 AUDIO
    TITLE "0:"
    INDEX 01 02:16:08
  TRACK 83 AUDIO
    TITLE "5:cjc172_0769"
    INDEX 01 02:16:14
  TRACK 84 AUDIO
    TITLE "0:"
    INDEX 01 02:22:75
